<?xml version="1.0" encoding="utf-8"?>
<!-- Generator: Adobe Illustrator 19.0.0, SVG Export Plug-In . SVG Version: 6.00 Build 0)  -->
<svg version="1.1" id="Layer_1" xmlns="http://www.w3.org/2000/svg" xmlns:xlink="http://www.w3.org/1999/xlink" x="0px" y="0px"
	 viewBox="0 0 334.9 48.1" style="enable-background:new 0 0 334.9 48.1;" xml:space="preserve">
<style type="text/css">
	.st0{fill:#00779C;}
	.st1{clip-path:url(#SVGID_1_);fill:#3BB4D8;}
	.st2{clip-path:url(#SVGID_1_);}
	.st3{fill:#00BCF6;}
	.st4{fill:#0D0F0F;}
</style>
<g>
	<g id="XMLID_100_">
		<path id="XMLID_98_" class="st0" d="M32,24c0,8.8-7.2,16-16,16C7.2,40,0,32.9,0,24C0,15.2,7.2,8,16,8C24.8,8,32,15.2,32,24"/>
		<g id="XMLID_101_">
			<defs>
				<path id="SVGID_3_" d="M0,24c0,8.8,7.2,16,16,16c8.9,0,16-7.1,16-16c0-8.8-7.2-16-16-16C7.2,8,0,15.2,0,24"/>
			</defs>
			<clipPath id="SVGID_1_">
				<use xlink:href="#SVGID_3_"  style="overflow:visible;"/>
			</clipPath>
			<path id="XMLID_110_" class="st1" d="M12,56l3.7-1.6l0-2.8l-3.7-1.5c-0.2-0.5-0.4-1.1-0.7-1.6l1.5-3.7l-2-2l-3.7,1.5
				c-0.6-0.3-1.1-0.5-1.7-0.7l-2-2.4H0.5l-1.1,2.4c-0.6,0.2-1.2,0.4-1.7,0.7l-3.7-1.5l-2,2l1.5,3.7c-0.3,0.6-0.5,1.1-0.7,1.7
				l-3.7,1.6v2.8l3.7,1.6c0.2,0.6,0.4,1.2,0.7,1.7l-1.5,3.7l2,2l3.7-1.5c0.6,0.3,1.1,0.5,1.7,0.7l1.5,3.7l2.8,0l1.6-3.7
				c0.6-0.2,1.2-0.4,1.8-0.7l3.7,1.5l2-2l-1.5-3.7C11.6,57.3,11.9,56.7,12,56 M2.5,57.1c-2.3,0-4.1-1.9-4-4.2
				c0.1-2.1,1.8-3.8,3.9-3.9c2.3-0.1,4.2,1.7,4.2,4C6.5,55.3,4.7,57.1,2.5,57.1"/>
			<g id="XMLID_106_" class="st2">
				<path id="XMLID_107_" class="st3" d="M16.9,23.6l3.3,1.6c0.3,0.2,0.7,0.1,1-0.2c0.2-0.2,0.4-0.4,0.7-0.7c0.2-0.3,0.3-0.6,0.2-1
					l-1.6-3.3c0.5-0.9,0.9-1.9,1.2-2.9L25,16c0.3-0.1,0.6-0.4,0.6-0.8c0-0.2,0-0.3,0-0.5c0-0.2,0-0.3,0-0.5c0-0.4-0.2-0.7-0.6-0.8
					l-3.4-1.2c-0.3-1-0.7-2-1.2-2.9l1.6-3.3c0.2-0.3,0.1-0.7-0.2-1c-0.2-0.2-0.4-0.4-0.7-0.7c-0.3-0.2-0.6-0.3-1-0.2l-3.3,1.6
					C16,5.4,15,5,14,4.8l-1.2-3.4C12.7,1,12.4,0.8,12,0.8c-0.2,0-0.3,0-0.5,0s-0.3,0-0.5,0c-0.4,0-0.7,0.2-0.8,0.6L9.1,4.8
					c-1,0.3-2,0.7-2.9,1.2L2.9,4.4C2.6,4.2,2.2,4.3,2,4.5C1.7,4.7,1.5,5,1.3,5.2C1.1,5.4,1,5.8,1.1,6.1l1.6,3.3
					c-0.5,0.9-0.9,1.9-1.2,2.9l-3.4,1.2c-0.3,0.1-0.6,0.4-0.6,0.8c0,0.2,0,0.3,0,0.5c0,0.2,0,0.3,0,0.5c0,0.4,0.2,0.7,0.6,0.8
					l3.4,1.2c0.3,1,0.7,2,1.2,2.9l-1.6,3.3c-0.2,0.3-0.1,0.7,0.2,1C1.5,24.6,1.7,24.8,2,25c0.3,0.2,0.6,0.3,1,0.2l3.3-1.6
					c0.9,0.5,1.9,0.9,2.9,1.2l1.2,3.4c0.1,0.3,0.4,0.6,0.8,0.6c0.2,0,0.3,0,0.5,0s0.3,0,0.5,0c0.4,0,0.7-0.2,0.8-0.6l1.2-3.4
					C15,24.6,16,24.2,16.9,23.6z M7.3,14.9c-0.1-2.5,1.9-4.5,4.4-4.4c2.2,0.1,4,1.9,4.1,4.1c0.1,2.5-1.9,4.5-4.4,4.4
					C9.2,18.9,7.4,17.1,7.3,14.9z"/>
			</g>
			<g id="XMLID_102_" class="st2">
				<path id="XMLID_103_" class="st3" d="M25,30.1l0.1-2.7c0-0.2-0.1-0.5-0.3-0.5c-0.2-0.1-0.5-0.2-0.7-0.3c-0.2-0.1-0.5,0-0.6,0.2
					l-1.8,2c-0.7-0.1-1.5-0.1-2.3,0l-1.8-2c-0.2-0.2-0.4-0.2-0.6-0.2c-0.1,0-0.2,0.1-0.4,0.1c-0.1,0-0.2,0.1-0.4,0.2
					c-0.2,0.1-0.3,0.3-0.3,0.5l0.1,2.7c-0.6,0.5-1.2,1-1.6,1.6l-2.7-0.1c-0.2,0-0.5,0.1-0.5,0.3c-0.1,0.2-0.2,0.5-0.3,0.7
					c-0.1,0.2,0,0.5,0.2,0.6l2,1.8c-0.1,0.7-0.1,1.5,0,2.3l-2,1.8c-0.2,0.2-0.2,0.4-0.2,0.6c0,0.1,0.1,0.2,0.1,0.4
					c0,0.1,0.1,0.2,0.2,0.4c0.1,0.2,0.3,0.3,0.5,0.3l2.7-0.1c0.5,0.6,1,1.2,1.6,1.6L15.9,45c0,0.2,0.1,0.5,0.3,0.5
					c0.2,0.1,0.5,0.2,0.7,0.3c0.2,0.1,0.5,0,0.6-0.2l1.8-2c0.7,0.1,1.5,0.1,2.3,0l1.8,2c0.2,0.2,0.4,0.2,0.6,0.2
					c0.1,0,0.2-0.1,0.4-0.1c0.1,0,0.2-0.1,0.4-0.2c0.2-0.1,0.3-0.3,0.3-0.5L25,42.3c0.6-0.5,1.2-1,1.6-1.6l2.7,0.1
					c0.2,0,0.5-0.1,0.5-0.3c0.1-0.2,0.2-0.5,0.3-0.7c0.1-0.2,0-0.5-0.2-0.6l-2-1.8c0.1-0.7,0.1-1.5,0-2.3l2-1.8
					c0.2-0.2,0.2-0.4,0.2-0.6c0-0.1-0.1-0.2-0.1-0.4s-0.1-0.2-0.2-0.4c-0.1-0.2-0.3-0.3-0.5-0.3l-2.7,0.1
					C26.1,31.1,25.6,30.5,25,30.1z M21.7,39.1c-1.6,0.7-3.4-0.1-4.1-1.7c-0.7-1.6,0.1-3.4,1.7-4.1c1.6-0.7,3.4,0.1,4.1,1.7
					C24,36.6,23.3,38.4,21.7,39.1z"/>
			</g>
		</g>
	</g>
	<g>
		<g>
			<path class="st4" d="M333.6,34.2h-2.7c-0.7,0-1.3-0.6-1.3-1.3V26h-6.3v6.9c0,0.7-0.6,1.3-1.3,1.3h-2.7c-0.7,0-1.3-0.6-1.3-1.3
				V15.2c0-0.7,0.6-1.3,1.3-1.3h2.7c0.7,0,1.3,0.6,1.3,1.3v6.1h6.3v-6.1c0-0.7,0.6-1.3,1.3-1.3h2.7c0.7,0,1.3,0.6,1.3,1.3v17.7
				C334.9,33.6,334.3,34.2,333.6,34.2z"/>
			<path class="st4" d="M296.7,17.2v-2c0-0.7,0.6-1.3,1.3-1.3h14.3c0.7,0,1.3,0.6,1.3,1.3v2c0,0.7-0.6,1.3-1.3,1.3h-4.6v14.4
				c0,0.7-0.6,1.3-1.3,1.3h-2.5c-0.7,0-1.3-0.6-1.3-1.3V18.5H298C297.3,18.5,296.7,17.9,296.7,17.2z"/>
			<path class="st4" d="M236.6,24.2v8.7c0,0.7-0.6,1.3-1.3,1.3h-2.8c-0.7,0-1.3-0.6-1.3-1.3V15.2c0-0.7,0.6-1.3,1.3-1.3h2.8
				c0.8,0,1.5,0.4,2,1l6.1,8.9v-8.6c0-0.7,0.6-1.3,1.3-1.3h2.7c0.7,0,1.3,0.6,1.3,1.3v17.7c0,0.7-0.6,1.3-1.3,1.3h-2.7
				c-0.8,0-1.5-0.4-2-1L236.6,24.2z"/>
			<path class="st4" d="M252.5,24c0-14,20.8-14,20.8,0C273.3,38.1,252.5,38.1,252.5,24z M268,24c0-7.3-10.2-7.3-10.2,0
				C257.9,31.4,268,31.4,268,24z"/>
			<path class="st4" d="M292.4,34.2h-2.5c-0.6,0-1.2-0.3-1.6-0.9l-3.1-5.1h-2.7v4.7c0,0.7-0.6,1.3-1.3,1.3h-2.8
				c-0.7,0-1.3-0.6-1.3-1.3V15.2c0-0.7,0.6-1.3,1.3-1.3h7.8c8,0,9.4,9.6,4.3,13.1l3,5.2C294,33.1,293.4,34.2,292.4,34.2z
				 M286.2,18.5c-1.2,0-2.5,0-3.7,0c0,1.7,0,3.4,0,5h3.7C289,23.5,289.1,18.6,286.2,18.5z"/>
		</g>
		<g>
			<path class="st4" d="M193,34.2h-2.7c-0.7,0-1.3-0.6-1.3-1.3V26h-6.3v6.9c0,0.7-0.6,1.3-1.3,1.3h-2.7c-0.7,0-1.3-0.6-1.3-1.3V15.2
				c0-0.7,0.6-1.3,1.3-1.3h2.7c0.7,0,1.3,0.6,1.3,1.3v6.1h6.3v-6.1c0-0.7,0.6-1.3,1.3-1.3h2.7c0.7,0,1.3,0.6,1.3,1.3v17.7
				C194.3,33.6,193.7,34.2,193,34.2z"/>
			<path class="st4" d="M156.1,17.2v-2c0-0.7,0.6-1.3,1.3-1.3h14.3c0.7,0,1.3,0.6,1.3,1.3v2c0,0.7-0.6,1.3-1.3,1.3h-4.6v14.4
				c0,0.7-0.6,1.3-1.3,1.3h-2.5c-0.7,0-1.3-0.6-1.3-1.3V18.5h-4.6C156.7,18.5,156.1,17.9,156.1,17.2z"/>
			<path class="st4" d="M211.7,17.2v-2c0-0.7-0.6-1.3-1.3-1.3c-3.6,0-6.8,0-10.4,0c-0.7,0-1.3,0.6-1.3,1.3v17.7
				c0,0.7,0.6,1.3,1.3,1.3c3.6,0,6.8,0,10.4,0c0.7,0,1.3-0.6,1.3-1.3v-2c0-0.7-0.6-1.3-1.3-1.3h-6.6V26h6c0.7,0,1.3-0.6,1.3-1.3
				v-2.2c0-0.7-0.6-1.3-1.3-1.3h-6v-2.7c2.5,0,4.4,0,6.6,0C211.1,18.5,211.7,17.9,211.7,17.2z"/>
		</g>
		<g>
			<path class="st4" d="M71.5,34.2h-2.7c-0.7,0-1.3-0.6-1.3-1.3V26h-6.3v6.9c0,0.7-0.6,1.3-1.3,1.3h-2.7c-0.7,0-1.3-0.6-1.3-1.3
				V15.2c0-0.7,0.6-1.3,1.3-1.3H60c0.7,0,1.3,0.6,1.3,1.3v6.1h6.3v-6.1c0-0.7,0.6-1.3,1.3-1.3h2.7c0.7,0,1.3,0.6,1.3,1.3v17.7
				C72.8,33.6,72.3,34.2,71.5,34.2z"/>
			<path class="st4" d="M92.6,34.2h2.2c0.9,0,1.6-1,1.2-1.8l-8-17.7c-0.2-0.5-0.7-0.8-1.2-0.8H86c-0.5,0-1,0.3-1.2,0.8l-8,17.7
				c-0.4,0.9,0.2,1.8,1.2,1.8h2.1c0.8,0,1.5-0.5,1.8-1.2l1-2.5h7l1.1,2.5C91.3,33.7,91.9,34.2,92.6,34.2z M84.8,25.9l1.6-3.8
				l1.6,3.8H84.8z"/>
			<path class="st4" d="M113.9,26c-0.6,0-1.2,0.4-1.5,0.9c-2.3,4.3-9.6,3.3-9.6-3c0-5.9,6.7-7.1,9.2-3.5c0.3,0.4,0.8,0.7,1.3,0.7
				h2.7c1,0,1.7-1.1,1.3-2c-4.1-9.1-20-7.5-20,4.8c0,12.7,16.9,14,20.4,3.9c0.3-0.9-0.4-1.9-1.4-1.9H113.9z"/>
			<path class="st4" d="M122.7,34.2l2.6,0c0.7,0,1.3-0.6,1.3-1.3V26h2.1l3.5,7.2c0.3,0.6,0.9,0.9,1.5,0.9l2.9,0c1,0,1.6-1.1,1.1-1.9
				l-4.8-8.3l4.7-8.1c0.5-0.9-0.1-2-1.1-2l-2.9,0c-0.6,0-1.2,0.3-1.5,0.9l-3.5,6.5h-2.1v-6.1c0-0.7-0.6-1.3-1.3-1.3h-2.6
				c-0.7,0-1.3,0.6-1.3,1.3v17.7C121.4,33.6,122,34.2,122.7,34.2z"/>
		</g>
	</g>
</g>
</svg>
