<?xml version="1.0" encoding="utf-8"?>
<!-- Generator: Adobe Illustrator 19.0.0, SVG Export Plug-In . SVG Version: 6.00 Build 0)  -->
<svg version="1.1" id="Layer_1" xmlns="http://www.w3.org/2000/svg" xmlns:xlink="http://www.w3.org/1999/xlink" x="0px" y="0px"
	 viewBox="-73.4 97.4 47.8 46" style="enable-background:new -73.4 97.4 47.8 46;" xml:space="preserve">
<style type="text/css">
	.st0{fill:#FFFFFF;}
</style>
<path class="st0" d="M-38.3,137c-1-2.4-3.7-3.5-6.1-2.5c-2.4,1-3.5,3.7-2.5,6.1c0.8,2,2.8,3,4.8,2.8c0.8-0.2,1.5-0.5,2.2-0.8
	C-38.1,141.3-37.4,139-38.3,137z M-56.2,113c3.7,0.1,6.7-2.9,6.6-6.6c-0.1-3.3-2.8-6.1-6.2-6.2c-3.7-0.1-6.7,2.9-6.6,6.6
	C-62.3,110.1-59.6,112.9-56.2,113z"/>
<path class="st0" d="M-42.3,97.5l-0.5,1c0.8,1.3,1.4,2.8,1.8,4.3l5.2,1.8c0.5,0.3,0.8,0.8,0.9,1.3v1.4c0,0.5-0.4,1-0.9,1.2l-5.2,1.8
	c-0.4,1.5-1,3-1.8,4.3l2.3,4.9c0.2,0.5,0.1,1.1-0.2,1.4c-0.3,0.3-0.6,0.7-1,1c-0.4,0.4-1,0.5-1.4,0.2l-4.9-2.2
	c-1.3,0.8-2.8,1.4-4.3,1.8l-1.8,5.2c-0.2,0.5-0.6,0.8-1.2,0.9h-1.4c-0.5,0-1-0.4-1.2-0.9l-1.8-5.2c-1.5-0.4-3-1-4.3-1.8l-5,2.3
	c-0.5,0.2-1.1,0.1-1.4-0.2c-0.3-0.3-0.7-0.6-1-1c-0.4-0.4-0.5-1-0.2-1.4l2.3-4.9c-0.8-1.3-1.4-2.8-1.8-4.3
	c-1.5,3.1-2.3,6.6-2.3,10.2c0,1.8,0.2,3.5,0.6,5.1c0.2,0.9,0.5,1.9,0.8,2.8c0.1,0.3,0.2,0.5,0.3,0.8c2.6,6.6,8,11.9,14.8,14.1v-0.1
	l3-2.7c-0.2-1.2-0.2-2.3,0-3.4l-3-2.7c-0.3-0.2-0.4-0.6-0.2-0.9c0.1-0.4,0.3-0.7,0.4-1.1c0.1-0.3,0.5-0.5,0.8-0.5l4.1,0.2
	c0.7-0.9,1.5-1.7,2.4-2.4l-0.2-4.1c0-0.3,0.2-0.7,0.5-0.8c0.2-0.1,0.4-0.2,0.5-0.2c0.2-0.1,0.4-0.1,0.5-0.2c0.3-0.1,0.7,0,0.9,0.2
	l2.7,3c1.2-0.2,2.3-0.2,3.4,0l2.7-3c0.2-0.3,0.6-0.4,0.9-0.2c0.4,0.1,0.7,0.3,1.1,0.4c0.3,0.1,0.5,0.5,0.5,0.8l-0.2,4.1
	c0.9,0.7,1.7,1.5,2.4,2.4l4.1-0.2c0.3,0,0.7,0.2,0.8,0.5v0.1c2-3.5,3.2-7.6,3.2-11.9v-1.2c-0.1-1.2-0.2-2.4-0.5-3.6
	C-27.6,107-33.9,100.1-42.3,97.5z"/>
</svg>
